<svg width="18" height="18" viewBox="0 0 18 18" fill="none" xmlns="http://www.w3.org/2000/svg">
<path d="M15.8954 9.03298C15.8954 9.2183 15.8548 9.39519 15.7738 9.56302C15.6926 9.73107 15.5884 9.87862 15.461 10.006C15.3333 10.1338 15.183 10.2378 15.0091 10.3188C14.8355 10.3999 14.6558 10.4404 14.4706 10.4404C14.2274 10.4404 13.9955 10.377 13.7756 10.2494C13.5554 10.1221 13.3817 9.95408 13.2543 9.74554H9.72756V13.2725C9.93589 13.4003 10.1038 13.574 10.2314 13.7938C10.3587 14.014 10.4225 14.2455 10.4225 14.4888C10.4225 14.6742 10.3847 14.851 10.3096 15.0188C10.2341 15.1869 10.1299 15.3344 9.99676 15.4618C9.86337 15.5896 9.7128 15.6937 9.54507 15.7746C9.37702 15.8557 9.20024 15.8963 9.01502 15.8963C8.8296 15.8963 8.65281 15.8558 8.48507 15.7746C8.31702 15.6937 8.16634 15.5896 8.03338 15.4618C7.89998 15.3346 7.79582 15.1869 7.72059 15.0188C7.64515 14.8509 7.60769 14.6742 7.60769 14.4888C7.60769 14.2456 7.67117 14.014 7.79874 13.7938C7.926 13.5739 8.09404 13.4003 8.30258 13.2725L8.30278 9.74528H4.70638C4.57882 9.95381 4.40493 10.1219 4.18508 10.2491C3.9649 10.3767 3.73338 10.4402 3.4901 10.4402C3.30467 10.4402 3.12788 10.3997 2.96015 10.3185C2.7921 10.2376 2.64142 10.1335 2.50845 10.0057C2.37526 9.87848 2.271 9.73084 2.19566 9.56277C2.12023 9.39502 2.08276 9.21832 2.08276 9.03292C2.08276 8.8479 2.12023 8.66819 2.19566 8.49434C2.2708 8.32057 2.37526 8.17021 2.50845 8.04264C2.64155 7.91518 2.79211 7.81111 2.96015 7.72985C3.12789 7.64889 3.30477 7.60821 3.4901 7.60821C3.73328 7.60821 3.96491 7.6719 4.18508 7.79926C4.40495 7.92683 4.57874 8.09456 4.70638 8.30311H8.30304L8.30294 4.70671C8.09441 4.57924 7.92635 4.40546 7.79909 4.1853C7.67153 3.96552 7.60804 3.7336 7.60804 3.49032C7.60804 3.3053 7.64551 3.12842 7.72094 2.96037C7.79608 2.79263 7.90034 2.64195 8.03373 2.50868C8.16683 2.37558 8.31739 2.27132 8.48543 2.19589C8.65328 2.12075 8.82995 2.08289 9.01538 2.08289C9.2006 2.08289 9.37738 2.12076 9.54542 2.19589C9.71317 2.27122 9.86384 2.37559 9.99712 2.50868C10.1302 2.64207 10.2343 2.79264 10.3099 2.96037C10.385 3.12842 10.4228 3.3052 10.4228 3.49032C10.4228 3.7335 10.359 3.96552 10.2318 4.1853C10.1042 4.40548 9.93625 4.57924 9.72792 4.70671V8.30336H13.2549C13.3824 8.09484 13.556 7.92709 13.7762 7.79952C13.9961 7.67205 14.2279 7.60847 14.4712 7.60847C14.6564 7.60847 14.8361 7.64905 15.0098 7.73011C15.1835 7.81117 15.3339 7.91543 15.4617 8.0429C15.5889 8.17047 15.6931 8.32084 15.7745 8.4946C15.855 8.66807 15.8956 8.84786 15.8956 9.0329L15.8954 9.03298Z" fill="#6F767E"/>
</svg>
